<svg width="200" height="81" viewBox="0 0 200 81" fill="none" xmlns="http://www.w3.org/2000/svg">
<path d="M37.0931 35.2564C14.7224 46.1764 7.84936 39.6225 14.6714 28.8892C21.4934 18.1558 23.1307 16.2002 23.1307 16.2002M37.0931 35.2564L23.1307 16.2002M37.0931 35.2564C37.0931 35.2564 6.66684 54.3581 17.6276 61.0437C28.5883 67.7293 37.0931 61.0437 37.0931 61.0437M37.0931 35.2564C37.0931 35.2564 37.0931 61.0437 37.0931 58.4968V61.0437M37.0931 35.2564C37.0931 35.2564 49.009 35.2564 52.329 31.0267C55.6491 26.7971 51.5104 19.2019 47.6446 18.3378C43.7787 17.4737 23.1307 16.2002 23.1307 16.2002M37.0931 35.2564L55.2852 42.4423C55.2852 42.4423 70.0662 50.0374 67.9742 58.4968C65.8821 66.9562 55.2852 64.4547 55.2852 64.4547L37.0931 61.0437" stroke="black" stroke-width="3"/>
<path d="M79.8997 45.6698C79.5797 45.6912 79.3344 45.6432 79.1637 45.5258C78.9931 45.4085 78.9077 45.2325 78.9077 44.9978C78.9077 44.5818 79.1371 44.3578 79.5957 44.3258L80.0917 44.2938C80.5931 44.2725 80.9664 44.1232 81.2117 43.8458C81.4571 43.5578 81.5797 43.1098 81.5797 42.5018V35.0618C81.5797 34.8165 81.6544 34.6192 81.8037 34.4698C81.9637 34.3098 82.1664 34.2298 82.4117 34.2298C82.6677 34.2298 82.8704 34.3098 83.0197 34.4698C83.1691 34.6192 83.2437 34.8165 83.2437 35.0618V42.5018C83.2437 43.5045 83.0037 44.2672 82.5237 44.7898C82.0544 45.3018 81.3451 45.5845 80.3957 45.6378L79.8997 45.6698ZM88.7609 45.5898C88.5049 45.5898 88.3022 45.5205 88.1529 45.3818C88.0142 45.2325 87.9449 45.0352 87.9449 44.7898V35.1098C87.9449 34.8645 88.0142 34.6725 88.1529 34.5338C88.3022 34.3845 88.5049 34.3098 88.7609 34.3098H94.6489C94.8942 34.3098 95.0809 34.3685 95.2089 34.4858C95.3475 34.6032 95.4169 34.7685 95.4169 34.9818C95.4169 35.1952 95.3475 35.3605 95.2089 35.4778C95.0809 35.5845 94.8942 35.6378 94.6489 35.6378H89.5609V39.1898H94.3289C94.5742 39.1898 94.7609 39.2485 94.8889 39.3658C95.0275 39.4832 95.0969 39.6485 95.0969 39.8618C95.0969 40.0752 95.0275 40.2405 94.8889 40.3578C94.7609 40.4752 94.5742 40.5338 94.3289 40.5338H89.5609V44.2618H94.6489C95.1609 44.2618 95.4169 44.4805 95.4169 44.9178C95.4169 45.1312 95.3475 45.2965 95.2089 45.4138C95.0809 45.5312 94.8942 45.5898 94.6489 45.5898H88.7609ZM107.864 34.2298C108.099 34.2298 108.286 34.3098 108.424 34.4698C108.574 34.6192 108.648 34.8165 108.648 35.0618V44.8378C108.648 45.0832 108.574 45.2858 108.424 45.4458C108.275 45.5952 108.083 45.6698 107.848 45.6698C107.571 45.6698 107.358 45.5632 107.208 45.3498L100.936 37.0778V44.8378C100.936 45.0832 100.862 45.2858 100.712 45.4458C100.574 45.5952 100.387 45.6698 100.152 45.6698C99.9176 45.6698 99.7309 45.5952 99.5922 45.4458C99.4536 45.2965 99.3842 45.0938 99.3842 44.8378V35.0618C99.3842 34.8165 99.4589 34.6192 99.6082 34.4698C99.7576 34.3098 99.9496 34.2298 100.184 34.2298C100.462 34.2298 100.675 34.3365 100.824 34.5498L107.096 42.8378V35.0618C107.096 34.8165 107.166 34.6192 107.304 34.4698C107.443 34.3098 107.63 34.2298 107.864 34.2298ZM121.835 34.2298C122.07 34.2298 122.256 34.3098 122.395 34.4698C122.544 34.6192 122.619 34.8165 122.619 35.0618V44.8378C122.619 45.0832 122.544 45.2858 122.395 45.4458C122.246 45.5952 122.054 45.6698 121.819 45.6698C121.542 45.6698 121.328 45.5632 121.179 45.3498L114.907 37.0778V44.8378C114.907 45.0832 114.832 45.2858 114.683 45.4458C114.544 45.5952 114.358 45.6698 114.123 45.6698C113.888 45.6698 113.702 45.5952 113.563 45.4458C113.424 45.2965 113.355 45.0938 113.355 44.8378V35.0618C113.355 34.8165 113.43 34.6192 113.579 34.4698C113.728 34.3098 113.92 34.2298 114.155 34.2298C114.432 34.2298 114.646 34.3365 114.795 34.5498L121.067 42.8378V35.0618C121.067 34.8165 121.136 34.6192 121.275 34.4698C121.414 34.3098 121.6 34.2298 121.835 34.2298ZM137.277 44.6298C137.331 44.7578 137.357 44.8645 137.357 44.9498C137.357 45.1525 137.272 45.3232 137.101 45.4618C136.941 45.6005 136.76 45.6698 136.557 45.6698C136.419 45.6698 136.285 45.6325 136.157 45.5578C136.04 45.4725 135.949 45.3552 135.885 45.2058L134.829 42.8058H128.973L127.917 45.2058C127.853 45.3552 127.757 45.4725 127.629 45.5578C127.501 45.6325 127.368 45.6698 127.229 45.6698C127.016 45.6698 126.824 45.6005 126.653 45.4618C126.493 45.3232 126.413 45.1525 126.413 44.9498C126.413 44.8645 126.44 44.7578 126.493 44.6298L131.005 34.7578C131.08 34.5872 131.197 34.4538 131.357 34.3578C131.528 34.2618 131.704 34.2138 131.885 34.2138C132.067 34.2138 132.237 34.2618 132.397 34.3578C132.568 34.4538 132.691 34.5872 132.765 34.7578L137.277 44.6298ZM129.565 41.4938H134.253L131.901 36.1978L129.565 41.4938ZM154.094 39.7818C154.745 39.9632 155.246 40.2885 155.598 40.7578C155.961 41.2272 156.142 41.8138 156.142 42.5178C156.142 43.4885 155.806 44.2458 155.134 44.7898C154.473 45.3232 153.545 45.5898 152.35 45.5898H148.27C148.014 45.5898 147.812 45.5205 147.662 45.3818C147.524 45.2325 147.454 45.0352 147.454 44.7898V35.1098C147.454 34.8645 147.524 34.6725 147.662 34.5338C147.812 34.3845 148.014 34.3098 148.27 34.3098H152.174C153.337 34.3098 154.244 34.5712 154.894 35.0938C155.556 35.6058 155.886 36.3258 155.886 37.2538C155.886 37.8512 155.726 38.3685 155.406 38.8058C155.097 39.2432 154.66 39.5685 154.094 39.7818ZM149.07 39.1898H151.918C153.497 39.1898 154.286 38.5925 154.286 37.3978C154.286 36.8005 154.089 36.3578 153.694 36.0698C153.31 35.7818 152.718 35.6378 151.918 35.6378H149.07V39.1898ZM152.174 44.2618C152.996 44.2618 153.598 44.1125 153.982 43.8138C154.366 43.5152 154.558 43.0512 154.558 42.4218C154.558 41.7818 154.361 41.3072 153.966 40.9978C153.582 40.6778 152.985 40.5178 152.174 40.5178H149.07V44.2618H152.174ZM161.194 45.6698C160.949 45.6698 160.751 45.5952 160.602 45.4458C160.453 45.2965 160.378 45.0938 160.378 44.8378V35.0618C160.378 34.8165 160.453 34.6192 160.602 34.4698C160.751 34.3098 160.949 34.2298 161.194 34.2298C161.45 34.2298 161.653 34.3045 161.802 34.4538C161.951 34.6032 162.026 34.8058 162.026 35.0618V44.8378C162.026 45.0938 161.951 45.2965 161.802 45.4458C161.663 45.5952 161.461 45.6698 161.194 45.6698ZM175.524 44.5658C175.62 44.7045 175.668 44.8538 175.668 45.0138C175.668 45.2058 175.588 45.3712 175.428 45.5098C175.278 45.6378 175.102 45.7018 174.9 45.7018C174.601 45.7018 174.361 45.5685 174.18 45.3018L172.036 41.9738C171.79 41.5898 171.529 41.3232 171.252 41.1738C170.974 41.0138 170.612 40.9338 170.164 40.9338H168.356V44.8378C168.356 45.0938 168.281 45.2965 168.132 45.4458C167.993 45.5952 167.796 45.6698 167.54 45.6698C167.294 45.6698 167.097 45.5952 166.948 45.4458C166.798 45.2965 166.724 45.0938 166.724 44.8378V35.1098C166.724 34.8645 166.793 34.6725 166.932 34.5338C167.081 34.3845 167.284 34.3098 167.54 34.3098H171.524C172.772 34.3098 173.721 34.5872 174.372 35.1418C175.033 35.6965 175.364 36.5072 175.364 37.5738C175.364 38.4592 175.113 39.1792 174.612 39.7338C174.11 40.2778 173.396 40.6245 172.468 40.7738C172.745 40.8485 172.996 40.9818 173.22 41.1738C173.444 41.3658 173.662 41.6325 173.876 41.9738L175.524 44.5658ZM171.332 39.6058C172.164 39.6058 172.777 39.4458 173.172 39.1258C173.577 38.7952 173.78 38.2885 173.78 37.6058C173.78 36.9232 173.582 36.4272 173.188 36.1178C172.793 35.7978 172.174 35.6378 171.332 35.6378H168.34V39.6058H171.332ZM184.62 45.7178C183.554 45.7178 182.626 45.4832 181.836 45.0138C181.058 44.5445 180.455 43.8778 180.028 43.0138C179.602 42.1498 179.388 41.1312 179.388 39.9578C179.388 38.7738 179.596 37.7498 180.012 36.8858C180.439 36.0112 181.047 35.3445 181.836 34.8858C182.626 34.4165 183.554 34.1818 184.62 34.1818C185.698 34.1818 186.631 34.4165 187.42 34.8858C188.21 35.3445 188.812 36.0112 189.228 36.8858C189.655 37.7498 189.868 38.7685 189.868 39.9418C189.868 41.1152 189.655 42.1392 189.228 43.0138C188.812 43.8778 188.21 44.5445 187.42 45.0138C186.631 45.4832 185.698 45.7178 184.62 45.7178ZM184.62 44.3738C185.751 44.3738 186.631 43.9898 187.26 43.2218C187.89 42.4538 188.204 41.3605 188.204 39.9418C188.204 38.5232 187.89 37.4352 187.26 36.6778C186.642 35.9098 185.762 35.5258 184.62 35.5258C183.5 35.5258 182.626 35.9098 181.996 36.6778C181.378 37.4352 181.068 38.5232 181.068 39.9418C181.068 41.3605 181.378 42.4538 181.996 43.2218C182.626 43.9898 183.5 44.3738 184.62 44.3738Z" fill="black"/>
</svg>
